<svg xmlns="http://www.w3.org/2000/svg" width="1536" height="1024" xmlns:v="https://vecta.io/nano"><path d="M742.5 107.625l2.002-.003c15.218.013 30.315 1.725 45.199 4.967 2.46.441 3.951.195 6.299-.588v2l2.988.418c10.106 1.45 20.008 2.948 29.641 6.438a123.15 123.15 0 0 0 7.898 2.383C855.422 128.291 873.353 135.612 891 144l10.438 4.813 2.587 1.205c4.406 2.009 8.188 3.188 12.975 3.982 2.855 1.153 5.576 2.531 8.313 3.938l2.205 1.092c5.351 2.708 5.351 2.708 6.482 4.971l5 2c6.997 3.975 13.585 8.722 20.188 13.313l2.325 1.599 2.155 1.514 1.946 1.357L967 185v2l2.293.789c2.806 1.255 4.011 2.314 6.02 4.586 3.86 4.036 8.074 7.273 12.563 10.563 9.547 7.049 17.411 13.792 24.191 23.629 2.356 2.965 4.722 4.431 8.008 6.211 2.914 1.85 4.808 4.373 6.984 7.02 3.618 4.106 7.816 7.618 11.941 11.203l1-1-2-2c3.375.313 3.375.313 7 1 2 3 2 3 2 6 1.281 2.059 2.605 4.02 4 6l2.516 3.813 1.341 2.048c3.961 6.079 7.811 12.168 11.331 18.514 2.425 4.348 4.993 8.346 8 12.313 3.276 4.357 5.55 8.671 7.652 13.688 1.133 2.563 2.453 4.859 3.91 7.25 2.21 3.806 2.784 6.853 2.719 11.234.81 3.265 3.153 4.818 5.531 7.141 10.205 15.79 14.453 32.994 17.089 51.43 1.053 6.807 2.042 10.675 6.911 15.57v3l2 1-2 3.125c-1.973 3.516-2.667 5.79-2 9.875l1.922 3.473c2.641 5.145 3.193 10.337 3.828 16.027l.379 3.07.871 7.43h-1c-.216 4.531.551 7.738 2 12l.375 4.125c.696 4.318 1.516 5.057 4.625 7.875 2.593 7.78.601 16.222-1 24h-1l-1 5h2c.757 3.419 1.159 6.663 1.281 10.16l.113 2.904.211 6.008.113 2.9.092 2.633c.114 2.345.114 2.345.708 4.359 3.002 12.687-.083 29.61-3.519 42.035l-1.426 5.563-3.074 11.824-.738 2.792-1.62 5.827-.834 2.936-.764 2.635c-.53 2.36-.611 4.27-.482 6.674-.066 3.97-1.002 5.394-2.982 8.688-2.042 3.897-3.028 8.154-4.206 12.375-4.916 16.842-10.924 33.62-18.914 49.27-1.052 2.647-1.153 4.596-.961 7.418h-2l1 3h-2l-.48 1.977c-1.571 5.885-3.264 9.653-7.52 14.023l1 1c-.531 9.728-4.203 17.323-10 25l-1 3-1-2c-2.259 2.714-2.259 2.714-1.812 5.25-.233 3.41-1.696 5.003-3.75 7.641-2.299 3.374-3.754 7.096-5.324 10.852C1057 763 1057 763 1055 764l-.113 3.691-.199 4.871-.068 2.424c-.235 5.227-.802 9.465-3.619 14.014-5.11 3.946-10.798 4.664-17.062 5.063-9.473.648-16.058 3.73-23.75 9.188l-2.128 1.485L1002 809c-5.084 3.592-10.161 7.131-15.437 10.438-3.7 2.326-7.246 4.763-10.75 7.375-5.147 3.813-10.518 7.141-15.981 10.471-3.853 2.38-7.343 4.86-10.769 7.841C943.44 849.851 932.548 857 925 857l1 3c-4.173 2.689-7.79 4.316-12.625 5.5-4.443 1.111-6.858 2.538-10.375 5.5-2.16.869-4.346 1.549-6.57 2.238-6.239 1.956-12.045 4.533-17.82 7.594-15.541 8.164-33.568 13.393-51.109 14.605-4.701.362-7.613 1.943-11.5 4.563v3l-2.562-1.125c-4.241-1.08-6.29-.14-10.437 1.125-1.499.048-3.001.046-4.5 0-3.097-.084-4.936.124-8 1-3.733 1.067-6.741 1.125-10.582.973-2.005-.11-2.005-.11-3.918 1.027l-1 2-6-3v2l-3-1c-2.49-.004-4.944.05-7.43.156l-4.566.163-2.414.091c-14.252.52-28.366.818-42.591-.41l-3.36-.282c-25.183-2.181-50.095-5.831-73.526-15.7-3.306-1.372-6.391-2.401-9.926-2.955-5.865-.938-11.207-3.275-16.681-5.5-3.457-1.401-6.81-2.687-10.432-3.594C592 877 592 877 590 874c1.563-1.187 1.563-1.187 4-2l4.794 2.089c13.085 5.402 27.852 8.115 41.769 10.348l3.076.496c5.21.779 10.201 1.162 15.466 1.059 2.309.009 4.361.398 6.584 1.008 2.696.674 4.681 1 7.5 1 2.813 0 2.813 0 5.301.969 4.835 1.42 9.497 1.418 14.512 1.531l5.813.156 2.582.057c3.067.338 5.684 1.304 8.605 2.287 4.476.742 8.988 1.159 13.5 1.625l3.609.406c12.166 1.29 24.095 1.258 36.266.094l2.959-.273L775 894l2.582-.259 6.793-.741 3.836-.437L791 892l1-2c2.109-.379 2.109-.379 4.75-.562 3.495-.256 6.823-.692 10.25-1.437h-2.738H791l-7.23.875-4.373.547-6.859.869-6.643.834-2.034.265c-4.664.574-9.173.683-13.861.61l-1 3h-5v-2l-3.699.105c-8.706.171-16.411-.072-24.863-2.379-4.322-.914-8.532-1.12-12.937-1.289-7.633-.294-14.966-1.136-22.5-2.437-7.652-1.149-15.303-2.204-23-3v-1l-2.313-.332c-16.204-2.39-31.214-5.528-46.448-11.755-6.941-2.829-13.749-5.034-21.114-6.475C585 864 585 864 583 863v-2l-2-1 1-1-6-2-1 4-2.379-1.094c-8.026-3.583-8.026-3.583-16.621-3.906l-1-4c2.076-.553 3.844-1 6-1l-5-2v-2l-9 1v-2h-7l1-3-3 1v-2l-2.125-.187c-3.12-.882-4.805-2.28-7.203-4.406-4.302-3.618-8.961-6.871-14.672-7.406v-4l-3.125-.5c-4.218-1.227-5.669-3.489-8.094-7.004-5.346-7.492-10.958-15.172-20.359-17.133L480 801c-10.088-1.856-10.088-1.856-13-6l-1.5-3.625c-1.147-3.402-1.147-3.402-3.5-4.687l-2-.687c-3.168-2.112-3.954-3.345-5.687-6.625l-1.324-2.477L452 775h-3l1.688 1.5C458 784.405 458 784.405 458 789c-6.083-1.034-10.546-5.955-14-10.812-1-2.187-1-2.187-1-4.187l-3 1-.148-2.082-.227-2.73-.211-2.707c-.281-2.724-.281-2.724-2.414-5.48l1 5c-2.626-.37-3.736-.69-5.484-2.742l-1.266-2.133-1.297-2.117C429 758 429 758 429 755l-2.75-.75c-5.532-2.128-8.036-6.201-11.187-11.062-2.253-3.445-4.508-6.864-6.937-10.187-2.543-3.59-3.915-6.175-5-10.437-1.178-3.731-2.676-5.578-5.125-8.562-1.503-3.683-2-5.982-2-10l-4 1c-3.149-6.299-3.149-6.299-2.375-9.937.571-4.661-1.942-7.404-4.625-11.062v1 3h2l-1 2c-3.843-1.723-6.264-3.368-8.027-7.277l-.91-2.66-1.012-2.93L375 674l-1.145-3.32C371 662.305 371 662.305 371 660h-3l1-3h2c1.313-2.885 1.313-2.885.151-5.233l-1.354-2.591-1.473-2.869-1.574-2.994c-8.943-17.188-8.943-17.188-9.312-24.5-.198-3.712-1.036-6.379-2.437-9.812a231.32 231.32 0 0 1-1.562-6.75c-.565-3.94-.565-3.94-2.437-7.25-.021-1.729.009-3.459.063-5.187.051-4.409-.483-7.668-2.062-11.812-.125-2.875-.125-2.875 0-5l-2-1 .035-2.027a214.44 214.44 0 0 0-.527-17.336c-.674-10.52-.694-21.041-.693-31.58l-.039-10.03-.006-6.418-.022-3.008c.028-8.456.028-8.456 2.252-12.601h2l1-4 1 3 3 1-.105 2.184c-.24 9.506.822 18.624 2.214 28.019.81 5.905 1.099 10.214-1.109 15.797l4 2c-1 3-1 3-3 5-.599 6.602-.229 13.488 1 20l2 1-1 1c.038 1.815.155 3.629.313 5.438l.238 2.996c.223 2.724.223 2.724 2.449 4.566.625 2.125.625 2.125 1 4l2-2-2-2 1-1c.442-5.527-.739-9.007-3-14v-4h-2l-1 2v-3l2-1c.25-3.416.25-3.416 0-7l-3-2v-3h2l.375-1.812C360 540 360 540 362 537h2v-2c3 1 3 1 4 3l1.465-19.859.236-3.441.461-6.945c.358-5.108.789-9.981 2.029-14.957L373 489l-2-2h2l1-3-7-2-3 3-2-1v-16l-4-1v-2l-1.828-.445-2.422-.68-2.391-.633c-3.248-1.71-4.911-3.943-6.359-7.242-.546-3.326-.494-6.582-.418-9.945l.034-2.925.125-6.137.093-9.176c.202-14.278 2.076-29.122 10.378-41.209 2.023-2.95 2.166-4.177 1.851-7.67-.121-3.208-.085-4.878 1.063-7.937 2.482-2.648 4.324-3.304 7.875-4 3.424.134 5.243.321 7.813 2.625 3.654 7.307 1.59 14.665.188 22.375l2 1 2 2.063c1.775 2.169 1.775 2.169 4 1.938l.488-2.184c6.644-26.228 20.784-52.344 35.23-75.125l1.398-2.208 2.734-4.244c2.518-3.807 2.518-3.807 3.148-8.239-2.293-.86-2.293-.86-5-1-2.166 1.665-2.166 1.665-4 4l-2.187 2.125c-1.877 1.754-1.877 1.754-2.812 3.875l-2-1v3l2 1c-1.325 4.637-3.255 8.054-6 12-.694 1.319-1.375 2.646-2 4h-1c.392-5.955 1.371-10.628 4-16-7.437 6.623-13.112 14.405-16 24l-4-1 .938-2.062c1.196-3.307 1.653-6.453 2.063-9.937l-3-1c4.745-11.42 10.177-22.667 18.371-32.02 1.577-1.917 2.619-3.723 3.629-5.98l1 1 2-4h2l2-5 2 2c4.435-3.726 7.371-7.351 9.813-12.625 4.652-9.939 11.961-18.198 19.188-26.375l-1-1-1.687 2.188c-4.205 5.114-9.057 9.406-14.031 13.75-2.515 2.274-4.891 4.658-7.281 7.063l-2.937 2.797c-5.811 5.571-10.8 10.692-14.062 18.203h-2c.441-5.738 2.821-10.295 6-15l2-1 .875-2.211c1.301-3.226 3.041-5.633 5.125-8.414 2.06-2.765 4.087-5.505 6-8.375h2l.805-1.77c1.232-2.299 2.577-3.984 4.32-5.918l5.762-6.551c4.85-5.697 10.174-10.237 16.113-14.762 3.017-2.322 5.611-4.54 8-7.5 6.766-7.921 14.884-14.787 22.766-21.574l5.656-4.945 3.766-3.293 1.802-1.602c3.254-2.826 5.965-4.511 10.01-6.086l1-3c1.723-1.437 1.723-1.437 4.063-3l9.598-6.621c8.453-6.037 16.991-11.089 26.405-15.475l5.572-2.67c7.949-3.837 16.059-7.155 24.274-10.379 5.245-2.072 10.331-4.288 15.312-6.945C592 129 592 129 595 128l2.366-.8c22.379-7.533 22.379-7.533 33.921-9.253 5.472-.827 10.555-2.29 15.783-4.079 5.385-1.594 10.818-1.992 16.41-2.148l3.737-.111 3.97-.108 4.124-.125 16.68-.484 11.195-.329 3.374-.082c5.214-.164 10.2-.543 15.333-1.492 6.874-1.235 13.633-1.371 20.605-1.363zM729 111l1 2h2v2c-5.391 1.128-5.391 1.128-8.375.5-3.757-.716-6.855-.128-10.625.5l-1 1-4.812.68c-4.094.599-8.137 1.481-12.187 2.32v1l1.984.044 9.016.268 3.121.068c6.341.222 11.043 1.175 16.879 3.619 2.975.658 2.975.658 5.75.875l2.734.305c2.581.071 2.581.071 4.234-1.691 3.753-2.448 7.696-1.538 12.031-1.176l2.691.186L760 124l1 3h-11l-1 2c6.696 1.288 13.016 2.239 19.844 1.875 2.156.125 2.156.125 3.961 1.063 3.146 1.523 6.387 1.711 9.82 2.063 5.519.618 10.886 1.448 16.316 2.629 2.697.486 5.326.441 8.059.371l1 1 6.643 1.304c7.423 1.539 14.762 3.451 22.107 5.321l2.625.668c15.334 3.929 30.666 8.016 44.773 15.355 3.902 1.987 7.294 3.068 11.664 3.664 20.138 3.636 40.322 13.596 58.466 22.821 2.21 1.112 4.456 2.125 6.722 3.116l2.313 1.016L965 192c-1.446-3.383-1.446-3.383-4.625-5.25L958 186v-2c-2.637-2.398-2.637-2.398-6-3v-2l-5-3-1.812-1.875c-3.518-3.417-7.74-5.914-12.129-8.086-3.295-1.663-6.386-3.662-9.523-5.602-2.457-1.393-4.916-2.395-7.535-3.437-1.812-1.625-1.812-1.625-3-3l-2 3-2.937-1.812c-2.667-1.53-5.183-2.619-8.125-3.5-4.971-1.514-9.458-3.91-13.977-6.439-2.878-1.535-4.595-2.286-7.883-1.952L876 144v-2c-11.037-5.53-21.851-10.691-33.75-14.062-3.25-.937-3.25-.937-5.926-2.023C832.393 124.368 828.22 124 824 124l-3.5-1.375c-5.264-2.023-11.115-3.826-16.801-3.488-3.154-.16-5.609-1.234-8.518-2.393-3.732-1.272-7.521-1.585-11.432-1.931l-2.508-.244A156.78 156.78 0 0 0 762 114c-2.52 0-4.601-.221-7.062-.656-8.695-1.488-17.077-2.881-25.937-2.344zm-140.375 26.25l-2.211.332c-5.26.892-8.874 2.632-13.414 5.418l-7 2-3 2-2-1c-2.654 1.152-5.185 2.361-7.75 3.688l-2.133 1.068c-3.293 1.674-6.357 3.404-9.434 5.463C539 158 539 158 535.813 158.813c-14.785 4.605-29.823 18.9-40.437 29.938-4.164 4.256-8.791 7.821-13.54 11.394-3.145 2.394-5.527 4.674-7.835 7.856l-5 4c-12.088 11.971-12.088 11.971-19 27h-3l1 2c4.512-2.256 7.593-5.49 11.063-9.059 2.174-2.178 4.476-4.095 6.938-5.941l-4-1v-2h2v-2l3-1v-2l2-.625c4.072-1.866 7.688-4.351 11-7.375v-2l3.438-.875L487 206c1.118-2.118 1.118-2.118 2-5l3 1 3-2v-3l2 2c3.426-3.175 3.426-3.175 6-7l4-1c1.842-1.098 1.842-1.098 3.563-2.437C522.721 179.491 536.399 172.615 550 166l5.25-2.687c7.059-3.536 14.422-6.389 21.75-9.312v-7h4c1.881-.676 1.881-.676 3.715-1.68l2.08-1.066 2.143-1.129c8.628-4.476 8.628-4.476 13.063-6.125v-1c-4.549-.18-8.906.492-13.375 1.25zM602 143v2l3-1-3-1zm-8.187 2.938l-2.73 1.152L589 148v1c7.136-.283 7.136-.283 13-4-3.708-1.236-4.675-.568-8.187.938zM578 151v2l7-2c-3.01-.934-3.867-1.044-7 0zm-106 68l-3 2 1 3v-2l3-1-1-2zm293 19c-1.575 7.405-1.4 14.956-1.562 22.5l-.063 2.839-.499 66.036-.001 2.764.423 60.251.04 2.269.483 22.994.081 3.737.174 6.834.061 3 .067 2.594C764 436 764 436 762 439c-2.379.417-2.379.417-5.348.477l-3.275.094-3.439.055-6.66.164-3.231.079c-2.773.12-5.477.373-8.23.718C728 441 728 441 726 440c-3.417-.026-6.819.028-10.234.127-1.922.03-3.845-.042-5.766-.127-2.653-2.653-2.266-3.898-2.303-7.606l-.051-3.651-.025-4.07-.051-4.338-.112-12.039-.128-12.839-.272-29.596-.195-22.173L706 241c-7.488-.913-14.869-1.148-22.407-1.145l-3.635-.01-9.78-.012-6.124-.005-21.402-.013c-6.633.001-13.265-.01-19.897-.026l-17.142-.018c-3.404 0-6.809-.003-10.213-.013l-11.38-.001-3.39-.017c-5.607.023-10.336.364-15.629 2.26-1.529 15.057-2.501 30.063-3 45.188l-.12 3.481-2.778 131.111-.243 14.372c-1.576 91.097-2.546 182.529 1.078 286.535l.114 2.879c.416 10.21 1.033 20.395 1.89 30.578l.226 2.855.238 2.644.202 2.334c.318 2.326.318 2.326 2.394 5.022 2.274.706 2.274.706 5 1l3.147.48c11.18 1.476 22.367 2.242 33.622 2.897l9.397.566c24.149 1.461 48.202 2.206 72.396 2.119l7.463-.014L714 776a482.09 482.09 0 0 0-.937-35.437l-.418-6.883-.274-4.487-1.029-20.04c-.132-3.701-.132-3.701-1.342-7.153a272.86 272.86 0 0 1-.021-8.8c.062-9.876-.18-19.72-.534-29.588l-.302-8.733-.751-21.68-.734-21.335-.099-2.948c-.486-14.645-.758-29.261-.557-43.915 3.894-2.136 7.049-2.357 11.5-2.562 4.707-.119 4.707-.119 9.306-.954 4.784-1.055 9.851-.456 14.721-.297l6.096.145 3.881.121 3.557.099c2.939.448 2.939.448 4.597 1.549 2.024 2.864 1.736 5.251 1.759 8.73l.026 2.106.034 6.95.046 4.906.074 10.45.127 16.401.146 16.346.569 40.323.058 2.743L765 722.813l.127 3.722 1.373 34.227.107 2.253c.232 4.386.712 8.652 1.393 12.986 39.291.697 78.705-1.272 117.867-4.316l2.114-.164 10.902-1 2.239-.227c1.963-.208 1.963-.208 3.878-1.292a162.73 162.73 0 0 1 5.625-.437c8.228-.273 8.228-.273 15.375-3.562a207.48 207.48 0 0 0 1.063-8l.273-2.338c.585-5.256.759-10.373.664-15.662l1-1a194.47 194.47 0 0 0 .754-7.551l.197-2.331.406-4.915.625-7.4c.665-7.936 1.18-15.764.97-23.737C932 690 932 690 933 689c.246-2.361.428-4.694.563-7.062l.131-2.143c.365-6.56.347-13.094.244-19.662C934 657 934 657 935 655c.072-1.51.084-3.023.063-4.535l-.023-2.701-.039-2.826-.062-5.535-.035-2.485C935 635 935 635 936 634c.148-1.604.228-3.214.281-4.824l.111-3.16.107-3.488.122-3.632.314-9.883.195-6.248c2.627-83.794 2.942-167.653-.472-251.427l-.283-7.158-.469-11.238-.17-4.167-.25-5.735-.139-3.257c-.34-2.719-.953-4.448-2.348-6.782h1v-12l-2-1v-2h1c.354-9.292-.602-18.404-1.599-27.626l-.803-7.7-.527-4.967-.234-2.289c-.754-8.472-.754-8.472-4.007-16.123-2.726-1.929-4.911-1.663-8.227-1.656l-1.975-.008c-2.188-.005-4.376.012-6.564.028a2894.05 2894.05 0 0 1-4.701-.001c-4.258-.001-8.516.017-12.774.038l-13.345.024-25.276.064-28.774.065L765 238zm276 14v9l4-1-2-1 .688-1.812L1044 255l-3-3zm3 9l2 4 1-2-1-2h-2zm-585 3l-1 2h2l-1-2zm589 2l1 2zm1 2l1 2zm-597 2l-2.187 2.188-5.562 5.438c-2.44 2.24-2.44 2.24-3.25 5.375l-1.937 1.813c-2.428 2.575-3.141 4.807-4.062 8.188h-2c-1.28 1.784-2.477 3.629-3.625 5.5l-1.914 3.094L426 304h3a69.5 69.5 0 0 0 4.5-5.625l2.66-3.57 1.399-1.888c2.843-3.782 5.815-7.465 8.773-11.158 2.476-3.124 4.866-6.194 6.668-9.759l-1-2zm673 214l1 7c1.333-2.892 1.333-2.892.063-5.187L1125 484zm1 21v6h1v-6h-1zm0 7l-1 4 2-1-1-3zm0 4l1 2zM373 656l1 7c.692-1.847.692-1.847 1-4l-2-3zm2 8l1 2zm1 2c.61 3.558 1.578 6.683 3 10 .805-1.701.805-1.701 1-4-1.358-3.217-1.358-3.217-3-6h-1zm4 10l1 2zm1 2l1 5 2-2-3-3zm182 173v2c4.155 3.246 7.906 3.568 13 4-2.692-3.325-6.065-4.525-10-6h-3zm253 36l1 2 8-1v-1h-9zm-70 5v2l2-1-2-1z" fill="#fe4341"/><path d="M1157 520h2c-.439 2.632-.816 4.69-2.187 7-1.085 2.031-1.085 2.031 0 4.25L1158 534l.375 4.188L1159 542c1.967 1.15 1.967 1.15 4 2 .75 3.125.75 3.125 1 6h2l-2.937 14.188-.514 2.482-.514 2.373-.457 2.157C1161 573 1161 573 1159 575c-.129 1.876-.129 1.876.063 4 .096 3.567-.333 6.16-1.562 9.5-1.89 5.564-1.697 10.898-1.477 16.699.171 5.509.171 5.509-2.023 8.801v3l-4-1-.395 2.988c-1.551 10.777-4.007 20.491-9.277 30.074-2.296 5.077-2.813 10.431-3.328 15.938h-2l-.312 1.563c-2.401 8.514-7.304 14.517-12.687 21.438l-1.934 2.633c-6.295 8.496-6.295 8.496-11.066 10.367-3.508-.591-6.707-1.672-10-3l-1 2h-1v2h-2v-2l-5 1 .5-3.312c.567-3.563.567-3.563.5-6.687l4.465-3.66c2.08-1.816 3.281-3.902 4.535-6.34h-5l1-4v2l3-1v-4l3-1v3c.981-3.053.981-4.947 0-8l-2 1v-3l3-2-1-4 2 1 1-2h-2l1-2h2c3.597-4.415 5.113-8.426 6-14 1.313-1.353 2.645-2.689 4-4v-4h3l-.125-2.875C1119 629 1119 629 1121 627l2-1c.382-2.299.651-4.617.875-6.937.662-6.278 1.776-12.302 3.25-18.437 1.301-5.497 2.169-10.429 1.891-16.105-.034-5.514.774-11.146 1.984-16.52l2-1c.432-1.923.432-1.923.563-4.187.326-3.643.791-7.209 1.438-10.812l3 1-1 15h2l-1 4 4-1-.125-2.312C1142 566 1142 566 1144 563c.447-2.216.815-4.448 1.125-6.687l.508-3.574L1146 550h-2c-.309-6.499-.009-12.113 3-18 2.5-2.25 2.5-2.25 5-4 1.699-2.498 1.699-2.498 3-5l2-3zm-12 26l2 4v-4h-2zm-15 41l1 3zm-26 108l1 3 3-3h-4z" fill="#fd4240"/><path d="M1122 459c1.685 2.696 2.137 4.892 2.375 8 .396 3.965 1.659 5.312 4.625 8 2.593 7.78.601 16.222-1 24-1.484-1.273-1.484-1.273-3-3-.25-3.625-.25-3.625 0-7l1-1-2-3c-.411-2.189-.411-2.189-.633-4.711l-.254-2.773-.238-2.891-.262-2.867c-.378-4.27-.658-8.468-.613-12.758z" fill="#f14746"/><path d="M557 504h1l.427 23.267.146 7.902.208 11.409.066 3.524c.376 21.049.376 21.049-.348 28.648l-.281 3.047L558 584h-1c-.932-18.244-.998-36.366-.562-54.625l.158-7.449L557 504z" fill="#fe3031"/><path d="M935 634h1c.964 17.204 1.049 33.877-1 51-2-2-2-2-2.135-4.522l.159-3.142.156-3.398.195-3.562.172-3.586L934 658l-2-1h2l-.016-2.004-.047-8.934-.025-3.154-.01-2.998-.016-2.777C934 635 934 635 935 634z" fill="#fc4f4b"/><path d="M1153 501c-.338 3.609-1.462 5.792-3.5 8.688-3.388 5.126-3.5 10.317-3.5 16.313h-4c-1.275-4.379-.636-7.2.75-11.5l1.047-3.344C1147.668 501 1147.668 501 1153 501z" fill="#f34643"/><path d="M706 565h1l1 12h1c.14 15.366-.193 30.655-1 46h-1c-.674-19.341-1.173-38.644-1-58z" fill="#fd5f59"/><path d="M562 850l2 1-1 2c4.251 1.86 8.499 2.932 13 4l-1 4-2.379-1.094c-8.026-3.583-8.026-3.583-16.621-3.906l-1-4c2.076-.553 3.844-1 6-1l1-1z" fill="#ed4843"/><path d="M1038 248l7 1c2 3 2 3 2 6l2 5h-2l1 5-.875-1.937c-.953-2.215-.953-2.215-3.125-3.062l-2-7-1 4-1-1 .063-2.937c.289-3.173.289-3.173-2.062-5.062z" fill="#f04241"/><path d="M1126 504h2c.797 3.5 1.119 6.714 1.098 10.301l-.01 2.959-.025 3.053-.014 3.111L1129 531h-1l-.184-2.668-.254-3.52-.246-3.48c-.27-2.848-.692-5.544-1.316-8.332h-1c-.089-3.199.089-5.927 1-9zm-2 9c1.746 2.619 2.387 4.038 3 7l-2 1v-2h-2l1-6z" fill="#f24947"/><path d="M1106 693h4l-1 2h-5l2-2zm2 2v3l3 2c-2.818 1.409-4.173.509-7.125-.437l-2.758-.871L1099 698l-1 2h-1v2h-2v-2l-5 1 2-4v2l2.625-1.5c3.526-1.567 5.579-1.753 9.375-1.5h3l1-1z" fill="#ed4946"/><path d="M406 315l5 1c-.417 4.45-2.336 7.402-4.746 11.035-1.235 1.935-2.263 3.896-3.254 5.965h-1c.369-5.73 1.201-9.888 4-15v-3z" fill="#f54845"/><path d="M388 321h1l.25 2.813c.453 3.273.453 3.273 2.813 5.063L394 330l-.875 2.125L390 341l-4-1 .938-2.062c1.196-3.307 1.653-6.453 2.063-9.937l-3-1 2-6z" fill="#ee4643"/><path d="M934 309c1.484 1.027 1.484 1.027 3 3 .249 2.612.329 4.96.25 7.563l-.033 2.158c-.114 5.457-.488 10.868-1.217 16.279h-1l-1-21-2-1a84.76 84.76 0 0 1 2-7z" fill="#fd5652"/><path d="M409 271l6 1-1.172 1.504c-3.331 4.345-6.221 8.682-8.828 13.496h-2c.399-5.184 2.35-8.762 4.941-13.145 1.141-1.644 1.141-1.644 1.059-2.855z" fill="#ef4542"/><path d="M470 216l2 1-1 4h-2l1 4-9 1 1-3h2v-2l6-5z" fill="#f14644"/><path d="M708 623l2 1c.688 3.5.688 3.5 1 7l-1 1-.316 4.035-.127 2.451-.119 2.576-.131 2.588L709 650h-1l-.562-12.937-.17-3.732-.146-3.545-.143-3.285C707 624 707 624 708 623z" fill="#fc5752"/><path d="M1135 552l3 1-1 15h2v3l-3 1v-12h-2l1-8z" fill="#f54a48"/><path d="M729.875 438.938l2.086.014L737 439c-2.787 2.787-5.154 2.657-9 3l-2-1-5.125-.062-2.758.027L716 441v-1c4.655-.921 9.147-1.122 13.875-1.062z" fill="#fd6861"/><path d="M378 680h3c4 4.229 4 4.229 4 8h2l-1 2c-2.875-1.289-5.05-2.493-7-5-.687-2.687-.687-2.687-1-5z" fill="#ec4944"/><path d="M1143 513h1v7l2 1v5h-4c-1.514-4.845-.366-8.259 1-13z" fill="#e44d49"/><path d="M1038 248l7 1 2 3-5 1-1 4-1-1 .063-2.937c.289-3.173.289-3.173-2.062-5.062z" fill="#e94a47"/><path d="M1157 520h2c-.523 2.763-1.109 5.326-2 8h-4c.597-3.342 1.736-5.464 4-8z" fill="#e04c48"/><path d="M592 872l6 2v3h-7l-1-3 2-2z" fill="#e94643"/><path d="M557 611h1l.563 4.25.316 2.391c.121 2.365-.183 4.11-.879 6.359h-2l-.062-5.937-.035-3.34C556 612 556 612 557 611z" fill="#fe3435"/><path d="M489 200l1 2 5-1-5 5h-3l-1-3 3-3z" fill="#f04946"/><path d="M899 770l-3 1v2l-14-1v-1l5.688-.5 3.199-.281A94.86 94.86 0 0 1 899 770z" fill="#fd4c48"/><path d="M355 536l5 1c-1 3-1 3-3 5-.648 2.571-.648 2.571-1 5h-1v-11z" fill="#f84b49"/><path d="M925 857l1 3-7 4c0-3 0-3 1.875-5.187C923 857 923 857 925 857z" fill="#ef4644"/><path d="M472 800l9 3-2 4-1-2h-3c-1.687-1.375-1.687-1.375-3-3v-2z" fill="#ec4a46"/><path d="M1101 673c.687 2.491 1 4.379 1 7l-7 1 1-4v2l3-1v-4l2-1z" fill="#f64a48"/><path d="M713 743l2 1-1 14h-1l-.562-6.937-.316-3.902L712 744l1-1z" fill="#fc514d"/><path d="M587 859l1 4-4 1-1-3-2-1c3-1 3-1 6-1z" fill="#f04744"/><path d="M503 192l2 1c-.812 1.938-.812 1.938-2 4l-3 1-2-1c1.231-2.463 2.781-3.425 5-5z" fill="#f14945"/><path d="M908 152l5 2-2 4-4-3 1-3z" fill="#e44543"/><path d="M1153 501l-1 5-2 1v-2h-2v-2c3-2 3-2 5-2z" fill="#e24744"/><path d="M886 239h10v1h-10v-1z" fill="#fb5f59"/><path d="M766 893l-4 2-2-2c2.491-1.245 3.411-.777 6 0z" fill="#f54646"/><path d="M84 282l4 5-2 1c-2-3-2-3-2-6z" fill="#6c6661"/><path d="M83 44l4 1-1 3-2-2-2-1 1-1z" fill="#6a6966"/><path d="M737 893h5v2l-5-1v-1z" fill="#f54445"/><path d="M847 239h8v1h-8v-1z" fill="#fc605a"/><path d="M816 239h8v1h-8v-1z" fill="#fd625b"/><path d="M84 924l3 1 1 3h-2l-2-4z" fill="#676460"/><path d="M676 887l5 1-4 1-1-2z" fill="#f54744"/><path d="M87 211l1 3-2 2-1-3h2v-2z" fill="#696662"/><path d="M84 876l3 1-1 3-2-4z" fill="#67635f"/><path d="M926 858h2l-1 4-1-4z" fill="#ec4745"/><path d="M1128 576h1v5l-2-3 1-2z" fill="#f94c4b"/><path d="M1141 553l3 2-3 1v-3z" fill="#f44c4a"/><path d="M1092 330v3h-2v-2l2-1z" fill="#ea4948"/><path d="M931 317h3l-1 3-2-3z" fill="#fd6660"/><path d="M829 239h6v1h-6v-1z" fill="#fc615b"/><path d="M495 192l3 1-2 3-1-4z" fill="#ed4846"/><path d="M85 965h2v3l-2-1v-2z" fill="#676661"/><path d="M84 930v3l-2-2 2-1z" fill="#676461"/><path d="M727 893h4l-1 2-3-2z" fill="#f64545"/><path d="M562 737h2l-1 3-1-3z" fill="#fc5e58"/><path d="M929 704l1 4-2-1 1-3z" fill="#fe615c"/><path d="M706 697h3l-1 3v-2l-2-1z" fill="#fe7068"/><path d="M931 680h1v5h-1v-5z" fill="#fe655f"/><path d="M1098 672l2 1-3 2 1-3z" fill="#f54a49"/><path d="M704 664l2 1-2 3v-4z" fill="#fe756c"/><path d="M1114 632l4 2-4-1v-1z" fill="#f64c4a"/><path d="M1138 561h1v5h-1v-5z" fill="#f34b4b"/><path d="M1131 549h3v2l-3-1v-1z" fill="#f64e4b"/><path d="M1124 458h1v5h-1v-5z" fill="#ea4a49"/><path d="M84 322l1 3-2 1 1-4z" fill="#6c6662"/><path d="M564 275h1v5h-1v-5z" fill="#fd5b56"/><path d="M915 239h5v1h-5v-1z" fill="#fe5a54"/><path d="M905 239h5v1h-5v-1z" fill="#fc5c56"/><path d="M781 239h5v1h-5v-1z" fill="#fb5e59"/><path d="M819 123l4 2h-4v-2z" fill="#ea4443"/><path d="M778 116h5v1h-5v-1z" fill="#ea4543"/><path d="M85 1021h2l-1 3-1-3z" fill="#6a6864"/><path d="M85 933h2l-1 3-1-3z" fill="#676461"/><path d="M996 930l3 2h-3v-2z" fill="#8b4643"/><path d="M924 861h2v2h-2v-2z" fill="#eb4745"/><path d="M85 853h2l-1 3-1-3z" fill="#67625e"/><path d="M544 846l2 1-1 2-1-3z" fill="#eb4744"/><path d="M998 834l1 2-3-1 2-1z" fill="#d84645"/><path d="M1045 797v3z" fill="#df4846"/><path d="M85 797h2l-1 3-1-3z" fill="#68615d"/><path d="M466 795l2 2-2 1v-3z" fill="#ee4846"/><path d="M85 781h2l-1 3-1-3z" fill="#68615d"/><path d="M1091 730l2 1h-3l1-1z" fill="#da4a49"/><path d="M704 696l2 1-2 2v-3z" fill="#fd726a"/><path d="M85 693h2l-1 3-1-3z" fill="#69615c"/><path d="M368 663l3 1h-3v-1z" fill="#ea4a47"/><path d="M1112 632l1 4z" fill="#f74d4b"/><path d="M85 629h2l-1 3-1-3z" fill="#6d615d"/><path d="M85 621h2l-1 3-1-3z" fill="#6c615d"/><path d="M1156 592l3 1h-3v-1z" fill="#ec4a49"/><path d="M85 589h2l-1 3-1-3z" fill="#6e615d"/><path d="M85 557h2l-1 3-1-3z" fill="#70615d"/><path d="M85 541h2l-1 3-1-3z" fill="#70625d"/><path d="M85 533h2l-1 3-1-3z" fill="#70615d"/><path d="M1144 528v3z" fill="#eb4c49"/><path d="M85 477h2l-1 3-1-3z" fill="#70635e"/><path d="M1119 413l1 3-2-1 1-2z" fill="#e84948"/><path d="M85 413l3 1h-3v-1z" fill="#6e6460"/><path d="M85 397h2l-1 3-1-3z" fill="#6e6461"/><path d="M378 392l4 1z" fill="#f94a49"/><path d="M85 381h2l-1 3-1-3z" fill="#6d6460"/><path d="M85 365h2l-1 3-1-3z" fill="#6e6561"/><path d="M1089 328l3 2h-3v-2z" fill="#ea4a47"/><path d="M933 324l1 4z" fill="#fe6861"/><path d="M563 313l2 3h-2v-3z" fill="#fd5f59"/><path d="M85 301h2l-1 3-1-3z" fill="#6c6662"/><path d="M407 286l1 2-3-1 2-1z" fill="#ea4a49"/><path d="M565 285v3z" fill="#fe5c56"/><path d="M400 285h2v2h-2v-2z" fill="#e44b49"/><path d="M85 269h2l-1 3-1-3z" fill="#6c6662"/><path d="M791 239l4 1z" fill="#fc605a"/><path d="M85 229h2l-1 3-1-3z" fill="#6a6662"/><path d="M85 205h2l-1 3-1-3z" fill="#696662"/><path d="M85 197h2l-1 3-1-3z" fill="#686662"/><path d="M499 192v3z" fill="#f04946"/><path d="M511 181l1 3-2-1 1-2z" fill="#ec4947"/><path d="M85 181h2l-1 3-1-3z" fill="#696763"/><path d="M85 149h2l-1 3-1-3z" fill="#696663"/><path d="M578 144l2 1-1 2-1-3z" fill="#f24744"/><path d="M752 119l2 2-2 1v-3z" fill="#f04746"/><path d="M721 117h2v2h-2v-2z" fill="#f14949"/><path d="M996 82l3 2h-3v-2z" fill="#834947"/><path d="M85 69h2l-1 3-1-3z" fill="#696966"/><path d="M1090 43l3 1h-3v-1z" fill="#6b504e"/><path d="M85 37h2l-1 3-1-3z" fill="#6a6966"/><path d="M85 29h2l-1 3-1-3z" fill="#696966"/><path d="M83 28l2 1h-3l1-1z" fill="#6a6967"/><path d="M1090 27l3 1h-3v-1z" fill="#68514f"/><path d="M85 5h2l-1 3-1-3z" fill="#6a6a67"/><path d="M84 1018l2 1-2 1v-2z" fill="#696764"/><path d="M948 1013l2 1-2 1v-2z" fill="#7e4743"/><path d="M1091 1010l1 2-2-1 1-1z" fill="#6a4d4b"/><path d="M948 997l2 1-2 1v-2z" fill="#804643"/><path d="M753 893h2l-1 2-1-2z" fill="#f44344"/><path d="M667 886l3 1z" fill="#f64645"/><path d="M605 875l3 1z" fill="#f14845"/><path d="M85 869h2l-1 2-1-2z" fill="#67625e"/><path d="M86 838l2 2h-2v-2z" fill="#66625d"/><path d="M14 834l2 2h-2v-2z" fill="#696560"/><path d="M85 821h2l-1 2-1-2z" fill="#68625e"/><path d="M489 805h2l-1 2-1-2z" fill="#f14745"/><path d="M1030 795l3 1z" fill="#ec4746"/><path d="M85 725h2l-1 2-1-2z" fill="#69615c"/><path d="M927 722h2l-1 2-1-2z" fill="#fc625c"/><path d="M1088 703h2l-1 2-1-2z" fill="#eb4c49"/><path d="M85 685h2l-1 2-1-2z" fill="#6a615d"/><path d="M86 670l2 2h-2v-2z" fill="#6a615c"/><path d="M1107 648l1 2-2-1 1-1z" fill="#f74a49"/><path d="M704 648l2 1-2 1v-2z" fill="#fe776e"/><path d="M1113 637l3 1z" fill="#f64d4a"/><path d="M1116 622l2 1-2 1v-2z" fill="#f74c4b"/><path d="M86 614l2 2h-2v-2z" fill="#6d625d"/><path d="M705 612l1 2-2-1 1-1z" fill="#fe7a71"/><path d="M85 581h2l-1 2-1-2z" fill="#6f615d"/><path d="M85 573h2l-1 2-1-2z" fill="#6f625d"/><path d="M1130 565l2 1-2 1v-2z" fill="#f84b4b"/><path d="M1138 553l2 2h-2v-2z" fill="#f44d4c"/><path d="M85 525h2l-1 2-1-2z" fill="#70615d"/><path d="M84 508h2l-1 2-1-2z" fill="#70625e"/><path d="M85 493h2l-1 2-1-2z" fill="#71635e"/><path d="M370 484l3 1z" fill="#f74c49"/><path d="M84 418l2 1-2 1v-2z" fill="#6f6460"/><path d="M85 405h2l-1 2-1-2z" fill="#6e6460"/><path d="M381 395l1 2-2-1 1-1z" fill="#f84b48"/><path d="M85 373h2l-1 2-1-2z" fill="#6d6560"/><path d="M85 348l2 2h-2v-2z" fill="#6d6662"/><path d="M386 328l2 2h-2v-2z" fill="#eb4945"/><path d="M563 306l2 2h-2v-2z" fill="#fe5e58"/><path d="M84 306l2 1-2 1v-2z" fill="#6c6562"/><path d="M439 286l1 2-2-1 1-1z" fill="#f84947"/><path d="M85 277h2l-1 2-1-2z" fill="#6c6662"/><path d="M872 239l3 1z" fill="#fb625c"/><path d="M868 239l3 1z" fill="#fb5f5c"/><path d="M796 239l3 1z" fill="#fd605a"/><path d="M501 190h2l-1 2-1-2z" fill="#ee4947"/><path d="M948 178l2 2h-2v-2z" fill="#ec4846"/><path d="M926 170l2 1-2 1v-2z" fill="#ee4744"/><path d="M925 164l2 1-2 1v-2z" fill="#e94845"/><path d="M789 117h2l-1 2-1-2z" fill="#ea4544"/><path d="M635 113l3 1z" fill="#e84644"/><path d="M85 77h2l-1 2-1-2z" fill="#696966"/><path d="M998 58l2 2h-2v-2z" fill="#7b4a48"/><path d="M948 21l2 1-2 1v-2z" fill="#7c4946"/><path d="M85 21h2l-1 2-1-2zm0-8h2l-1 2-1-2z" fill="#6a6a66"/><path d="M1042 1021l2 1z" fill="#704d49"/><path d="M948 1021l2 1z" fill="#7e4643"/><path d="M82 1021l2 1z" fill="#6a6866"/><path d="M1090 1019l2 1z" fill="#6b4e4a"/><path d="M85 1005l2 1z" fill="#696763"/><path d="M1090 1003l2 1z" fill="#6c4d4a"/><path d="M997 1003l2 1z" fill="#784745"/><path d="M82 997l2 1z" fill="#696764"/><path d="M1044 995l2 1z" fill="#724b47"/><path d="M1042 989l2 1z" fill="#724a46"/><path d="M82 989l2 1z" fill="#696663"/><path d="M1042 981l2 1z" fill="#744a47"/><path d="M82 981l2 1z" fill="#696663"/><path d="M1090 979l2 1z" fill="#6c4c49"/><path d="M85 973l2 1z" fill="#686662"/><path d="M1042 957l2 1z" fill="#784a46"/><path d="M1090 955l2 1z" fill="#6e4a48"/><path d="M84 954l2 1z" fill="#676662"/><path d="M1090 947l2 1z" fill="#704a48"/><path d="M1042 933l2 1z" fill="#7f4946"/><path d="M82 933l2 1z" fill="#676462"/><path d="M1090 931l2 1z" fill="#744a47"/><path d="M82 925l2 1z" fill="#666362"/><path d="M1090 923l2 1z" fill="#764947"/><path d="M997 923l2 1z" fill="#904644"/><path d="M82 917l2 1z" fill="#676361"/><path d="M1090 915l2 1z" fill="#7a4946"/><path d="M763 906l2 1z" fill="#eb4644"/><path d="M1090 899l2 1z" fill="#7f4846"/><path d="M654 898l2 1z" fill="#e94744"/><path d="M1090 891l2 1z" fill="#824845"/><path d="M696 890l2 1z" fill="#f84646"/><path d="M800 888l2 1z" fill="#f54745"/><path d="M868 886l2 1z" fill="#ef4444"/><path d="M664 885l2 1z" fill="#f54545"/><path d="M998 883l2 1z" fill="#ac4645"/><path d="M628 881l2 1z" fill="#f34744"/><path d="M82 877l2 1z" fill="#676360"/><path d="M1090 875l2 1z" fill="#8c4844"/><path d="M907 868l2 1z" fill="#f04544"/><path d="M593 867l2 1z" fill="#f04946"/><path d="M82 861l2 1z" fill="#67625f"/><path d="M82 853l2 1z" fill="#68625f"/><path d="M1090 851l2 1z" fill="#964846"/><path d="M82 845l2 1z" fill="#68625f"/><path d="M522 837l2 1z" fill="#e74645"/><path d="M1042 829l2 1z" fill="#c24846"/><path d="M85 829l2 1z" fill="#67625f"/><path d="M82 829l2 1z" fill="#67615e"/><path d="M1090 827l2 1z" fill="#a54946"/><path d="M997 821l2 1z" fill="#e24745"/><path d="M84 818l2 1z" fill="#67625d"/><path d="M494 813l2 1z" fill="#eb4a46"/><path d="M85 813l2 1z" fill="#67625e"/><path d="M82 797l2 1z" fill="#69615e"/><path d="M82 789l2 1zm0-8l2 1z" fill="#69605e"/><path d="M841 772l2 1z" fill="#ff635d"/><path d="M836 772l2 1zm22-1l2 1z" fill="#ff625d"/><path d="M855 771l2 1z" fill="#fd655d"/><path d="M84 770l2 1z" fill="#69615d"/><path d="M898 768l2 1z" fill="#fd6158"/><path d="M85 749l2 1z" fill="#69615c"/><path d="M82 733l2 1z" fill="#69605d"/><path d="M85 717l2 1z" fill="#69615d"/><path d="M82 717l2 1z" fill="#69605d"/><path d="M1090 715l2 1z" fill="#e34a49"/><path d="M82 709l2 1z" fill="#69605d"/><path d="M392 707l2 1z" fill="#ec4b49"/><path d="M1100 702l2 1z" fill="#e94b49"/><path d="M1091 702l2 1z" fill="#ed4b4a"/><path d="M704 677l2 1z" fill="#fe756c"/><path d="M704 656l2 1z" fill="#fe756b"/><path d="M1106 653l2 1z" fill="#f84b4a"/><path d="M85 645l2 1z" fill="#6c615d"/><path d="M1118 627l2 1z" fill="#f44c4c"/><path d="M704 608l2 1z" fill="#fc7d72"/><path d="M1125 595l2 1z" fill="#f64b4c"/><path d="M82 589l2 1z" fill="#6f615e"/><path d="M362 579l2 1z" fill="#f74c4b"/><path d="M344 573l2 1z" fill="#ec4747"/><path d="M85 565l2 1z" fill="#70625d"/><path d="M82 565l2 1z" fill="#70625e"/><path d="M1134 547l2 1z" fill="#f54e4b"/><path d="M360 536l2 1z" fill="#f64c49"/><path d="M85 501l2 1z" fill="#71635e"/><path d="M82 501l2 1z" fill="#70615f"/><path d="M368 487l2 1z" fill="#f44d49"/><path d="M367 483l2 1z" fill="#f74d4b"/><path d="M344 459l2 1z" fill="#ee4c48"/><path d="M85 445l2 1z" fill="#6f645f"/><path d="M85 437l2 1z" fill="#6f6460"/><path d="M704 432l2 1z" fill="#fc8075"/><path d="M704 400l2 1z" fill="#fe766b"/><path d="M704 392l2 1z" fill="#fe786c"/><path d="M82 389l2 1z" fill="#6e6461"/><path d="M704 368l2 1z" fill="#fe7269"/><path d="M82 365l2 1z" fill="#6e6562"/><path d="M82 349l2 1z" fill="#6d6562"/><path d="M85 341l2 1z" fill="#6e6561"/><path d="M85 333l2 1z" fill="#6d6662"/><path d="M85 325l2 1z" fill="#6c6662"/><path d="M1090 323l2 1z" fill="#e54948"/><path d="M562 322l2 1z" fill="#fd625c"/><path d="M82 309l2 1z" fill="#6d6563"/><path d="M85 293l2 1z" fill="#6c6663"/><path d="M1090 291l2 1z" fill="#d04a49"/><path d="M82 285l2 1z" fill="#6c6562"/><path d="M1090 251l2 1z" fill="#b94b4a"/><path d="M1090 243l2 1z" fill="#b54b4a"/><path d="M900 239l2 1z" fill="#fd5e58"/><path d="M864 239l2 1z" fill="#fc605a"/><path d="M840 239l2 1z" fill="#fb625d"/><path d="M825 239l2 1z" fill="#fc5f5a"/><path d="M788 239l2 1z" fill="#fc5f59"/><path d="M776 239l2 1z" fill="#fb5e59"/><path d="M82 181l2 1z" fill="#696663"/><path d="M1090 179l2 1z" fill="#934c4a"/><path d="M82 173l2 1z" fill="#6a6664"/><path d="M950 171l2 1z" fill="#e24543"/><path d="M155 170l2 1z" fill="#67615e"/><path d="M1090 163l2 1z" fill="#8d4c4a"/><path d="M1042 157l2 1z" fill="#9f4b49"/><path d="M82 157l2 1z" fill="#696664"/><path d="M156 156l2 1z" fill="#67605d"/><path d="M562 154l2 1z" fill="#ef4846"/><path d="M917 153l2 1z" fill="#df4646"/><path d="M1090 147l2 1z" fill="#864c4a"/><path d="M134 143l2 1z" fill="#676461"/><path d="M585 139l2 1z" fill="#f14947"/><path d="M85 133l2 1z" fill="#696865"/><path d="M82 133l2 1z" fill="#696765"/><path d="M85 125l2 1z" fill="#696865"/><path d="M1090 123l2 1z" fill="#7c4d4b"/><path d="M754 121l2 1z" fill="#ef4545"/><path d="M738 120l2 1z" fill="#ef4644"/><path d="M732 116l2 1z" fill="#ee4946"/><path d="M776 109l2 1z" fill="#e34343"/><path d="M750 106l2 1z" fill="#e14441"/><path d="M997 91l2 1z" fill="#874948"/><path d="M1090 83l2 1z" fill="#714f4c"/><path d="M1090 67l2 1z" fill="#6d504c"/><path d="M1090 59l2 1z" fill="#6c504c"/><path d="M1090 51l2 1z" fill="#6c504d"/><path d="M1042 45l2 1z" fill="#724e4a"/><path d="M997 43l2 1z" fill="#774a48"/><path d="M995 38l2 1z" fill="#774b47"/><path d="M82 37l2 1z" fill="#6b6968"/><path d="M1090 35l2 1z" fill="#6a504e"/><path d="M998 35l2 1z" fill="#754b49"/><path d="M1042 29l2 1zm0-8l2 1z" fill="#6f4f4c"/><path d="M1042 13l2 1z" fill="#6e4f4c"/><path d="M1090 11l2 1z" fill="#68514f"/><path d="M1070 11l2 1z" fill="#68524e"/><path d="M1090 3l2 1z" fill="#68534f"/></svg>